<svg xmlns="http://www.w3.org/2000/svg" width="24" height="24" viewBox="0 0 24 24"><g fill="none"><path d="m12.593 23.258l-.011.002l-.071.035l-.02.004l-.014-.004l-.071-.035q-.016-.005-.024.005l-.004.01l-.017.428l.005.02l.01.013l.104.074l.015.004l.012-.004l.104-.074l.012-.016l.004-.017l-.017-.427q-.004-.016-.017-.018m.265-.113l-.013.002l-.185.093l-.01.01l-.003.011l.018.43l.005.012l.008.007l.201.093q.019.005.029-.008l.004-.014l-.034-.614q-.005-.018-.02-.022m-.715.002a.02.02 0 0 0-.027.006l-.006.014l-.034.614q.001.018.017.024l.015-.002l.201-.093l.01-.008l.004-.011l.017-.43l-.003-.012l-.01-.01z"/><path fill="currentColor" d="M5.436 16.72a1.466 1.466 0 0 1 1.22 2.275a1.466 1.466 0 0 1-1.22 2.275c-.65 0-1.163-.278-1.427-.901a.65.65 0 1 1 1.196-.508a.18.18 0 0 0 .165.109c.109 0 .23-.03.23-.167c0-.1-.073-.143-.156-.154l-.051-.004a.65.65 0 0 1-.096-1.293l.096-.007c.102 0 .207-.037.207-.158c0-.137-.12-.167-.23-.167a.18.18 0 0 0-.164.11a.65.65 0 1 1-1.197-.509c.264-.622.777-.9 1.427-.9ZM20 18a1 1 0 1 1 0 2H9a1 1 0 1 1 0-2zM6.08 9.945a1.552 1.552 0 0 1 .43 2.442l-.554.593h.47a.65.65 0 1 1 0 1.3H4.573a.655.655 0 0 1-.655-.654c0-.207.029-.399.177-.557L5.559 11.5c.11-.117.082-.321-.06-.392c-.136-.068-.249.01-.275.142l-.006.059a.65.65 0 0 1-.65.65c-.39 0-.65-.327-.65-.697a1.482 1.482 0 0 1 2.163-1.317ZM20 11a1 1 0 0 1 .117 1.993L20 13H9a1 1 0 0 1-.117-1.993L9 11zM6.15 3.39v3.24a.65.65 0 1 1-1.3 0V4.522a.65.65 0 0 1-.46-1.183l.742-.495a.655.655 0 0 1 1.018.545ZM20 4a1 1 0 0 1 .117 1.993L20 6H9a1 1 0 0 1-.117-1.993L9 4z"/></g></svg>